<?xml version="1.0" encoding="UTF-8" standalone="no" ?>
<!DOCTYPE svg PUBLIC "-//W3C//DTD SVG 1.1//EN" "http://www.w3.org/Graphics/SVG/1.1/DTD/svg11.dtd">
<svg xmlns="http://www.w3.org/2000/svg" xmlns:xlink="http://www.w3.org/1999/xlink" version="1.1" width="1024" height="1024" viewBox="0 0 1024 1024" xml:space="preserve">
<desc>Created with Fabric.js 3.1.0</desc>
<defs>
</defs>
<g transform="matrix(1 0 0 1 512 512)" id="background-logo"  >
<rect style="stroke: none; stroke-width: 1; stroke-dasharray: none; stroke-linecap: butt; stroke-dashoffset: 0; stroke-linejoin: miter; stroke-miterlimit: 4; fill: rgb(255,255,255); fill-rule: nonzero; opacity: 1;"  paint-order="stroke"  x="-512" y="-512" rx="0" ry="0" width="1024" height="1024" />
</g>
<g transform="matrix(1.5745007680491552 0 0 1.5745007680491552 512.0000000000001 696.531490015361)"  >
<filter id="SVGID_5474" y="-20%" height="140%" x="-20%" width="140%" >
	<feGaussianBlur in="SourceAlpha" stdDeviation="0"></feGaussianBlur>
	<feOffset dx="0" dy="0" result="oBlur" ></feOffset>
	<feFlood flood-color="rgb(0,0,0)" flood-opacity="1"/>
	<feComposite in2="oBlur" operator="in" />
	<feMerge>
		<feMergeNode></feMergeNode>
		<feMergeNode in="SourceGraphic"></feMergeNode>
	</feMerge>
</filter>
<path style="stroke: none; stroke-width: 1; stroke-dasharray: none; stroke-linecap: butt; stroke-dashoffset: 0; stroke-linejoin: miter; stroke-miterlimit: 4; fill: rgb(3,45,135); fill-rule: nonzero; opacity: 1;filter: url(#SVGID_5474);"  paint-order="stroke"  transform=" translate(-303.51500000000004, 12.49)" d="M 2.06 -12.04 L 2.06 -12.04 Q 2.06 -18.54 5.36 -22.09 Q 8.67 -25.63 14.75 -25.63 L 14.75 -25.63 Q 17.17 -25.63 19.31 -25.07 Q 21.45 -24.5 22.55 -23.82 L 22.55 -23.82 L 22.13 -18.91 L 19.97 -18.91 Q 19.49 -20.2 19.06 -20.99 Q 18.63 -21.78 18.03 -22.39 Q 17.42 -22.99 16.61 -23.25 Q 15.8 -23.5 14.66 -23.5 L 14.66 -23.5 Q 12.52 -23.5 10.88 -22.68 Q 9.25 -21.87 8.26 -20.4 Q 7.28 -18.93 6.79 -17.02 Q 6.29 -15.12 6.29 -12.8 L 6.29 -12.8 Q 6.29 -7.26 8.49 -4.49 Q 10.69 -1.72 14.61 -1.72 L 14.61 -1.72 Q 18.02 -1.72 22.69 -3.88 L 22.69 -3.88 L 22.96 -1.44 Q 19.41 0.65 14.31 0.65 L 14.31 0.65 Q 11.62 0.65 9.4 -0.14 Q 7.19 -0.93 5.54 -2.47 Q 3.88 -4.01 2.97 -6.45 Q 2.06 -8.89 2.06 -12.04 Z M 27.12 -23.06 L 25.54 -23.06 L 25.54 -25 Q 27.74 -25.26 31.08 -25.26 L 31.08 -25.26 Q 35.33 -25.26 36.76 -25 L 36.76 -25 L 36.76 -23.06 L 35.12 -23.06 Q 33.86 -23.06 33.31 -22.87 L 33.31 -22.87 Q 33.06 -22.03 33.06 -20.76 L 33.06 -20.76 L 33.06 -2.21 L 39.76 -2.21 Q 40.41 -2.21 40.75 -2.22 Q 41.08 -2.23 41.6 -2.3 Q 42.12 -2.37 42.39 -2.5 Q 42.66 -2.64 43.03 -2.88 Q 43.4 -3.13 43.64 -3.51 Q 43.88 -3.88 44.11 -4.45 Q 44.35 -5.01 44.54 -5.75 L 44.54 -5.75 L 46.05 -5.54 L 45.4 0 Q 41.8 0.25 39.48 0.25 L 39.48 0.25 Q 37.55 0.25 34.74 0.12 Q 31.94 0 31.13 0 L 31.13 0 Q 27.77 0 25.56 0.25 L 25.56 0.25 L 25.56 -2.21 L 27.12 -2.21 Q 28.42 -2.21 28.93 -2.37 L 28.93 -2.37 Q 29.21 -3.11 29.21 -4.5 L 29.21 -4.5 L 29.21 -20.76 Q 29.21 -22.08 28.93 -22.87 L 28.93 -22.87 Q 28.42 -23.06 27.12 -23.06 L 27.12 -23.06 Z M 47.57 0.25 L 47.57 0.25 L 48.09 -2.21 L 48.9 -2.21 Q 50.08 -2.21 50.59 -2.37 L 50.59 -2.37 Q 51.15 -3.13 51.66 -4.5 L 51.66 -4.5 Q 52.82 -7.65 56.16 -16.05 L 56.16 -16.05 L 59.82 -25.26 L 61.44 -25.26 Q 62.75 -25.26 63.58 -24.98 L 63.58 -24.98 L 71.33 -4.55 Q 71.82 -3.25 72.39 -2.37 L 72.39 -2.37 Q 73 -2.21 74.07 -2.21 L 74.07 -2.21 L 74.85 -2.21 L 75.36 0.25 Q 73.67 0 71.1 0 L 71.1 0 Q 67.78 0 65.87 0.25 L 65.87 0.25 L 65.53 -2.21 L 65.83 -2.21 Q 67.1 -2.21 67.57 -2.37 L 67.57 -2.37 Q 67.54 -3.27 67.06 -4.5 L 67.06 -4.5 L 65.9 -7.44 L 55.76 -7.44 L 54.81 -4.55 Q 54.4 -3.34 54.4 -2.58 L 54.4 -2.58 Q 54.4 -2.21 55.67 -2.21 L 55.67 -2.21 L 56.48 -2.21 L 56.32 0.25 Q 54.9 0 52.59 0 L 52.59 0 Q 49.48 0 47.57 0.25 Z M 60.75 -22.13 L 56.34 -9.25 L 65.23 -9.25 L 60.91 -22.13 L 60.75 -22.13 Z M 78.84 -23.06 L 76.73 -23.06 L 76.73 -25 Q 79.63 -25.44 86.98 -25.44 L 86.98 -25.44 Q 89.72 -25.44 91.69 -25.07 Q 93.66 -24.7 95.07 -23.85 Q 96.49 -23.01 97.18 -21.59 Q 97.88 -20.18 97.88 -18.14 L 97.88 -18.14 Q 97.88 -15.49 96.5 -13.81 Q 95.12 -12.13 92.83 -11.32 L 92.83 -11.32 Q 93.27 -9.14 94.54 -6.98 Q 95.82 -4.82 97.27 -3.52 Q 98.72 -2.21 99.74 -2.21 L 99.74 -2.21 L 100.72 -2.21 L 100.72 0.25 L 98.07 0.25 Q 97.03 0.25 96.11 -0.03 Q 95.19 -0.3 94.48 -0.72 Q 93.78 -1.14 93.14 -1.84 Q 92.5 -2.53 92.06 -3.16 Q 91.62 -3.8 91.2 -4.72 Q 90.79 -5.64 90.55 -6.3 Q 90.32 -6.96 90.06 -7.93 Q 89.81 -8.89 89.69 -9.39 Q 89.58 -9.88 89.42 -10.69 L 89.42 -10.69 Q 86.59 -10.69 84.57 -10.78 L 84.57 -10.78 L 84.57 -4.55 Q 84.57 -3.29 84.83 -2.37 L 84.83 -2.37 Q 85.41 -2.21 86.64 -2.21 L 86.64 -2.21 L 88.22 -2.21 L 88.22 0.25 Q 86.26 0 83.27 0 L 83.27 0 Q 79.37 0 77.1 0.25 L 77.1 0.25 L 77.1 -2.21 L 78.66 -2.21 Q 79.96 -2.21 80.47 -2.37 L 80.47 -2.37 Q 80.75 -3.06 80.75 -4.5 L 80.75 -4.5 L 80.74 -21.01 Q 80.74 -22.34 80.46 -22.92 L 80.46 -22.92 Q 79.98 -23.06 78.84 -23.06 L 78.84 -23.06 Z M 84.57 -23.06 L 84.57 -12.81 Q 86.36 -12.78 87.73 -12.78 L 87.73 -12.78 Q 93.92 -12.78 93.92 -17.98 L 93.92 -17.98 Q 93.92 -20.83 92.41 -21.95 Q 90.9 -23.06 87.29 -23.06 L 87.29 -23.06 L 84.57 -23.06 Z M 104.04 -22.83 L 102.09 -22.83 L 102.09 -24.73 Q 104.92 -25.26 111.13 -25.26 L 111.13 -25.26 L 121.89 -25.26 L 122.36 -22.99 Q 122.84 -20.55 122.84 -20.11 L 122.84 -20.11 L 120.25 -20 L 120.11 -20.88 Q 119.94 -21.88 119.71 -22.54 L 119.71 -22.54 Q 118.6 -23.03 115.19 -23.03 L 115.19 -23.03 Q 115.01 -23.03 109.78 -22.9 L 109.78 -22.9 L 109.78 -14.04 L 115.75 -14.04 Q 116.19 -14.04 116.43 -14.09 Q 116.67 -14.13 116.96 -14.31 Q 117.26 -14.48 117.47 -14.9 Q 117.69 -15.31 117.88 -16 L 117.88 -16 L 118.79 -16 Q 118.79 -12.83 118.56 -9.76 L 118.56 -9.76 L 117.46 -9.76 Q 117.04 -11.06 116.58 -11.5 Q 116.12 -11.94 115.17 -11.94 L 115.17 -11.94 L 109.78 -11.94 L 109.78 -2.21 L 117.79 -2.21 Q 118.67 -2.21 119.39 -2.38 Q 120.11 -2.55 120.39 -2.81 L 120.39 -2.81 Q 120.71 -3.69 120.87 -5.75 L 120.87 -5.75 Q 121.15 -5.75 121.91 -5.73 Q 122.68 -5.71 123.05 -5.71 L 123.05 -5.71 L 123.05 -3.67 Q 123.05 -2.48 122.87 -0.37 L 122.87 -0.37 Q 121.76 -0.04 120.29 0.11 Q 118.81 0.25 116 0.25 L 116 0.25 Q 114.54 0.25 111.92 0.12 Q 109.3 0 107.88 0 L 107.88 0 Q 104.33 0 102.29 0.25 L 102.29 0.25 L 102.29 -2.21 L 103.85 -2.21 Q 105.17 -2.21 105.66 -2.37 L 105.66 -2.37 Q 105.94 -3.09 105.94 -4.5 L 105.94 -4.5 L 105.94 -20.64 Q 105.94 -21.9 105.64 -22.66 L 105.64 -22.66 Q 105.24 -22.83 104.04 -22.83 L 104.04 -22.83 Z M 133.91 0.25 L 133.91 0.25 L 134.44 -2.21 L 135.25 -2.21 Q 136.42 -2.21 136.93 -2.37 L 136.93 -2.37 Q 137.5 -3.13 138.01 -4.5 L 138.01 -4.5 Q 139.17 -7.65 142.51 -16.05 L 142.51 -16.05 L 146.16 -25.26 L 147.78 -25.26 Q 149.1 -25.26 149.92 -24.98 L 149.92 -24.98 L 157.68 -4.55 Q 158.17 -3.25 158.73 -2.37 L 158.73 -2.37 Q 159.35 -2.21 160.42 -2.21 L 160.42 -2.21 L 161.19 -2.21 L 161.7 0.25 Q 160.01 0 157.45 0 L 157.45 0 Q 154.13 0 152.21 0.25 L 152.21 0.25 L 151.88 -2.21 L 152.17 -2.21 Q 153.44 -2.21 153.91 -2.37 L 153.91 -2.37 Q 153.88 -3.27 153.4 -4.5 L 153.4 -4.5 L 152.24 -7.44 L 142.1 -7.44 L 141.15 -4.55 Q 140.75 -3.34 140.75 -2.58 L 140.75 -2.58 Q 140.75 -2.21 142.01 -2.21 L 142.01 -2.21 L 142.82 -2.21 L 142.66 0.25 Q 141.24 0 138.94 0 L 138.94 0 Q 135.83 0 133.91 0.25 Z M 147.09 -22.13 L 142.68 -9.25 L 151.58 -9.25 L 147.25 -22.13 L 147.09 -22.13 Z M 163.76 -12.04 L 163.76 -12.04 Q 163.76 -18.54 167.06 -22.09 Q 170.37 -25.63 176.45 -25.63 L 176.45 -25.63 Q 178.88 -25.63 181.01 -25.07 Q 183.15 -24.5 184.25 -23.82 L 184.25 -23.82 L 183.83 -18.91 L 181.67 -18.91 Q 181.2 -20.2 180.76 -20.99 Q 180.33 -21.78 179.73 -22.39 Q 179.12 -22.99 178.31 -23.25 Q 177.5 -23.5 176.36 -23.5 L 176.36 -23.5 Q 174.22 -23.5 172.58 -22.68 Q 170.95 -21.87 169.96 -20.4 Q 168.98 -18.93 168.49 -17.02 Q 167.99 -15.12 167.99 -12.8 L 167.99 -12.8 Q 167.99 -7.26 170.19 -4.49 Q 172.39 -1.72 176.31 -1.72 L 176.31 -1.72 Q 179.72 -1.72 184.39 -3.88 L 184.39 -3.88 L 184.66 -1.44 Q 181.11 0.65 176.01 0.65 L 176.01 0.65 Q 173.32 0.65 171.11 -0.14 Q 168.89 -0.93 167.24 -2.47 Q 165.59 -4.01 164.67 -6.45 Q 163.76 -8.89 163.76 -12.04 Z M 187.93 -12.04 L 187.93 -12.04 Q 187.93 -18.54 191.23 -22.09 Q 194.54 -25.63 200.62 -25.63 L 200.62 -25.63 Q 203.04 -25.63 205.18 -25.07 Q 207.32 -24.5 208.42 -23.82 L 208.42 -23.82 L 208 -18.91 L 205.84 -18.91 Q 205.37 -20.2 204.93 -20.99 Q 204.5 -21.78 203.9 -22.39 Q 203.29 -22.99 202.48 -23.25 Q 201.67 -23.5 200.53 -23.5 L 200.53 -23.5 Q 198.39 -23.5 196.75 -22.68 Q 195.12 -21.87 194.13 -20.4 Q 193.15 -18.93 192.66 -17.02 Q 192.16 -15.12 192.16 -12.8 L 192.16 -12.8 Q 192.16 -7.26 194.36 -4.49 Q 196.56 -1.72 200.48 -1.72 L 200.48 -1.72 Q 203.89 -1.72 208.56 -3.88 L 208.56 -3.88 L 208.83 -1.44 Q 205.28 0.65 200.18 0.65 L 200.18 0.65 Q 197.49 0.65 195.28 -0.14 Q 193.06 -0.93 191.41 -2.47 Q 189.76 -4.01 188.84 -6.45 Q 187.93 -8.89 187.93 -12.04 Z M 212.06 -12.55 L 212.06 -12.55 Q 212.06 -18.76 215.2 -22.19 Q 218.34 -25.63 223.82 -25.63 L 223.82 -25.63 Q 229.25 -25.63 232.39 -22.19 Q 235.53 -18.76 235.53 -12.55 L 235.53 -12.55 Q 235.53 -6.4 232.38 -2.87 Q 229.24 0.65 223.82 0.65 L 223.82 0.65 Q 218.37 0.65 215.22 -2.87 Q 212.06 -6.38 212.06 -12.55 Z M 216.3 -12.5 L 216.3 -12.5 Q 216.3 -7.12 218.19 -4.32 Q 220.08 -1.53 223.82 -1.53 L 223.82 -1.53 Q 227.46 -1.53 229.39 -4.27 Q 231.31 -7.01 231.31 -12.55 L 231.31 -12.55 Q 231.31 -17.96 229.39 -20.73 Q 227.46 -23.5 223.82 -23.5 L 223.82 -23.5 Q 220.2 -23.5 218.25 -20.73 Q 216.3 -17.96 216.3 -12.5 Z M 239.71 -23.06 L 238.13 -23.06 L 238.13 -25.01 Q 240.19 -25.26 243.67 -25.26 L 243.67 -25.26 Q 247.92 -25.26 249.35 -25 L 249.35 -25 L 249.35 -23.06 L 247.71 -23.06 Q 246.45 -23.06 245.9 -22.87 L 245.9 -22.87 Q 245.65 -22.08 245.65 -20.76 L 245.65 -20.76 L 245.65 -8.81 Q 245.65 -5.22 247.37 -3.36 Q 249.08 -1.49 252.07 -1.49 L 252.07 -1.49 Q 255.41 -1.49 257 -3.6 Q 258.59 -5.71 258.59 -10.14 L 258.59 -10.14 L 258.59 -20.76 Q 258.59 -22.18 258.31 -22.87 L 258.31 -22.87 Q 257.8 -23.06 256.5 -23.06 L 256.5 -23.06 L 254.92 -23.06 L 254.92 -25.01 Q 256.89 -25.26 260.09 -25.26 L 260.09 -25.26 Q 263.94 -25.26 265.27 -25 L 265.27 -25 L 265.27 -23.06 L 263.65 -23.06 Q 262.34 -23.06 261.84 -22.87 L 261.84 -22.87 Q 261.58 -22.13 261.58 -20.76 L 261.58 -20.76 L 261.58 -9.07 Q 261.58 -5.94 260.28 -3.73 Q 258.98 -1.51 256.75 -0.43 Q 254.51 0.65 251.54 0.65 L 251.54 0.65 Q 241.8 0.65 241.8 -10.3 L 241.8 -10.3 L 241.8 -20.76 Q 241.8 -22.18 241.52 -22.87 L 241.52 -22.87 Q 241.01 -23.06 239.71 -23.06 L 239.71 -23.06 Z M 269.12 -23.06 L 267.17 -23.06 L 267.17 -25 Q 270.44 -25.26 271.99 -25.26 L 271.99 -25.26 Q 274.24 -25.26 275.13 -25.03 L 275.13 -25.03 Q 282.74 -13.31 287.88 -4.66 L 287.88 -4.66 Q 287.88 -6.61 287.75 -13.02 Q 287.63 -19.42 287.63 -20.76 L 287.63 -20.76 Q 287.63 -22.18 287.35 -22.87 L 287.35 -22.87 Q 286.73 -23.06 285.54 -23.06 L 285.54 -23.06 L 283.76 -23.06 L 283.76 -25 Q 285.71 -25.26 289.05 -25.26 L 289.05 -25.26 Q 292.8 -25.26 294.06 -25 L 294.06 -25 L 294.06 -23.06 L 292.66 -23.06 Q 291.46 -23.06 290.85 -22.87 L 290.85 -22.87 Q 290.58 -22.13 290.58 -20.76 L 290.58 -20.76 Q 290.58 -16.07 290.07 0.25 L 290.07 0.25 L 288.25 0.25 Q 287.26 0.25 286.65 -0.12 L 286.65 -0.12 L 273.88 -20.43 Q 274.04 -15.86 274.13 -4.55 L 274.13 -4.55 Q 274.13 -3.22 274.38 -2.37 L 274.38 -2.37 Q 274.96 -2.21 276.19 -2.21 L 276.19 -2.21 L 277.79 -2.21 L 277.79 0.25 Q 275.98 0 273.2 0 L 273.2 0 Q 269.68 0 267.57 0.25 L 267.57 0.25 L 267.57 -2.21 L 269.14 -2.21 Q 270.44 -2.21 270.95 -2.37 L 270.95 -2.37 Q 271.23 -3.06 271.23 -4.5 L 271.23 -4.5 L 271.21 -20.76 Q 271.21 -22.18 270.93 -22.87 L 270.93 -22.87 Q 270.42 -23.06 269.12 -23.06 L 269.12 -23.06 Z M 295.8 -25 L 295.8 -25 Q 296.31 -25.26 299.95 -25.26 L 299.95 -25.26 Q 300.3 -25.26 303.7 -25.2 Q 307.09 -25.14 307.6 -25.14 L 307.6 -25.14 Q 308.41 -25.14 310.1 -25.17 Q 311.8 -25.21 313.17 -25.23 Q 314.54 -25.26 314.58 -25.26 L 314.58 -25.26 Q 318.2 -25.26 318.78 -25 L 318.78 -25 Q 318.78 -23.99 318.69 -21.76 Q 318.6 -19.53 318.6 -18.77 L 318.6 -18.77 L 316.41 -18.77 Q 316.41 -21.78 315.81 -23.06 L 315.81 -23.06 L 309.34 -23.06 L 309.34 -4.55 Q 309.34 -3.11 309.6 -2.37 L 309.6 -2.37 Q 310.18 -2.21 311.41 -2.21 L 311.41 -2.21 L 313 -2.21 L 313 0.25 Q 311.03 0 308.04 0 L 308.04 0 Q 304.12 0 301.85 0.25 L 301.85 0.25 L 301.85 -2.21 L 303.42 -2.21 Q 304.73 -2.21 305.23 -2.37 L 305.23 -2.37 Q 305.49 -3.06 305.49 -4.27 L 305.49 -4.27 L 305.49 -23.06 L 299.02 -23.06 Q 298.42 -21.78 298.42 -18.77 L 298.42 -18.77 L 296 -18.77 Q 296 -19.53 295.9 -21.76 Q 295.8 -23.99 295.8 -25 Z M 322.45 -23.06 L 320.87 -23.06 L 320.87 -25 Q 323.07 -25.26 326.41 -25.26 L 326.41 -25.26 Q 330.64 -25.26 332.05 -25 L 332.05 -25 L 332.05 -23.06 L 330.43 -23.06 Q 329.17 -23.06 328.62 -22.87 L 328.62 -22.87 Q 328.38 -21.92 328.38 -20.87 L 328.38 -20.87 L 328.38 -4.55 Q 328.38 -3.32 328.62 -2.37 L 328.62 -2.37 Q 329.24 -2.21 330.43 -2.21 L 330.43 -2.21 L 332.02 -2.21 L 332.02 0.25 Q 330.05 0 327.08 0 L 327.08 0 Q 323.17 0 320.89 0.25 L 320.89 0.25 L 320.89 -2.21 L 322.45 -2.21 Q 323.75 -2.21 324.26 -2.37 L 324.26 -2.37 Q 324.54 -3.11 324.54 -4.5 L 324.54 -4.5 L 324.54 -20.87 Q 324.54 -22.08 324.26 -22.87 L 324.26 -22.87 Q 323.75 -23.06 322.45 -23.06 L 322.45 -23.06 Z M 336.74 -23.06 L 334.79 -23.06 L 334.79 -25 Q 338.06 -25.26 339.61 -25.26 L 339.61 -25.26 Q 341.86 -25.26 342.76 -25.03 L 342.76 -25.03 Q 350.37 -13.31 355.5 -4.66 L 355.5 -4.66 Q 355.5 -6.61 355.38 -13.02 Q 355.25 -19.42 355.25 -20.76 L 355.25 -20.76 Q 355.25 -22.18 354.97 -22.87 L 354.97 -22.87 Q 354.36 -23.06 353.16 -23.06 L 353.16 -23.06 L 351.39 -23.06 L 351.39 -25 Q 353.34 -25.26 356.68 -25.26 L 356.68 -25.26 Q 360.42 -25.26 361.69 -25 L 361.69 -25 L 361.69 -23.06 L 360.28 -23.06 Q 359.09 -23.06 358.47 -22.87 L 358.47 -22.87 Q 358.21 -22.13 358.21 -20.76 L 358.21 -20.76 Q 358.21 -16.07 357.7 0.25 L 357.7 0.25 L 355.87 0.25 Q 354.88 0.25 354.27 -0.12 L 354.27 -0.12 L 341.51 -20.43 Q 341.67 -15.86 341.75 -4.55 L 341.75 -4.55 Q 341.75 -3.22 342 -2.37 L 342 -2.37 Q 342.58 -2.21 343.81 -2.21 L 343.81 -2.21 L 345.41 -2.21 L 345.41 0.25 Q 343.6 0 340.82 0 L 340.82 0 Q 337.31 0 335.2 0.25 L 335.2 0.25 L 335.2 -2.21 L 336.76 -2.21 Q 338.06 -2.21 338.57 -2.37 L 338.57 -2.37 Q 338.85 -3.06 338.85 -4.5 L 338.85 -4.5 L 338.84 -20.76 Q 338.84 -22.18 338.55 -22.87 L 338.55 -22.87 Q 338.04 -23.06 336.74 -23.06 L 336.74 -23.06 Z M 364.76 -12.01 L 364.76 -12.01 Q 364.76 -18.74 368.39 -22.18 Q 372.02 -25.63 378.46 -25.63 L 378.46 -25.63 Q 380.76 -25.63 382.84 -25.06 Q 384.93 -24.49 385.98 -23.82 L 385.98 -23.82 L 385.54 -18.91 L 383.38 -18.91 Q 382.9 -20.18 382.47 -20.98 Q 382.04 -21.78 381.43 -22.39 Q 380.81 -22.99 380 -23.25 Q 379.2 -23.5 378.05 -23.5 L 378.05 -23.5 Q 373.54 -23.5 371.27 -20.59 Q 369 -17.68 369 -12.39 L 369 -12.39 Q 369 -7.51 371.23 -4.61 Q 373.46 -1.71 377.54 -1.71 L 377.54 -1.71 Q 380.76 -1.71 382.75 -2.67 L 382.75 -2.67 L 382.75 -6.75 Q 382.75 -8.28 382.5 -9.02 L 382.5 -9.02 Q 381.85 -9.26 380.62 -9.26 L 380.62 -9.26 L 378.54 -9.26 L 378.54 -11.16 Q 378.58 -11.16 379.52 -11.26 Q 380.46 -11.36 381.74 -11.42 Q 383.01 -11.48 384.7 -11.48 L 384.7 -11.48 Q 385.86 -11.48 386.54 -11.46 L 386.54 -11.46 Q 386.44 -8.79 386.44 -7.96 L 386.44 -7.96 L 386.44 -1.78 Q 382.89 0.65 377.51 0.65 L 377.51 0.65 Q 374.77 0.65 372.49 -0.11 Q 370.21 -0.88 368.46 -2.39 Q 366.71 -3.9 365.74 -6.36 Q 364.76 -8.82 364.76 -12.01 Z M 398.64 -12.01 L 398.64 -12.01 Q 398.64 -18.74 402.27 -22.18 Q 405.9 -25.63 412.33 -25.63 L 412.33 -25.63 Q 414.63 -25.63 416.72 -25.06 Q 418.8 -24.49 419.85 -23.82 L 419.85 -23.82 L 419.41 -18.91 L 417.25 -18.91 Q 416.78 -20.18 416.35 -20.98 Q 415.92 -21.78 415.3 -22.39 Q 414.69 -22.99 413.88 -23.25 Q 413.07 -23.5 411.93 -23.5 L 411.93 -23.5 Q 407.41 -23.5 405.14 -20.59 Q 402.87 -17.68 402.87 -12.39 L 402.87 -12.39 Q 402.87 -7.51 405.11 -4.61 Q 407.34 -1.71 411.42 -1.71 L 411.42 -1.71 Q 414.63 -1.71 416.62 -2.67 L 416.62 -2.67 L 416.62 -6.75 Q 416.62 -8.28 416.37 -9.02 L 416.37 -9.02 Q 415.72 -9.26 414.49 -9.26 L 414.49 -9.26 L 412.42 -9.26 L 412.42 -11.16 Q 412.45 -11.16 413.39 -11.26 Q 414.33 -11.36 415.61 -11.42 Q 416.88 -11.48 418.57 -11.48 L 418.57 -11.48 Q 419.73 -11.48 420.42 -11.46 L 420.42 -11.46 Q 420.31 -8.79 420.31 -7.96 L 420.31 -7.96 L 420.31 -1.78 Q 416.76 0.65 411.38 0.65 L 411.38 0.65 Q 408.64 0.65 406.36 -0.11 Q 404.09 -0.88 402.34 -2.39 Q 400.59 -3.9 399.61 -6.36 Q 398.64 -8.82 398.64 -12.01 Z M 424.58 -23.06 L 422.47 -23.06 L 422.47 -25 Q 425.37 -25.44 432.72 -25.44 L 432.72 -25.44 Q 435.46 -25.44 437.43 -25.07 Q 439.4 -24.7 440.82 -23.85 Q 442.23 -23.01 442.92 -21.59 Q 443.62 -20.18 443.62 -18.14 L 443.62 -18.14 Q 443.62 -15.49 442.24 -13.81 Q 440.86 -12.13 438.57 -11.32 L 438.57 -11.32 Q 439.01 -9.14 440.29 -6.98 Q 441.56 -4.82 443.01 -3.52 Q 444.46 -2.21 445.48 -2.21 L 445.48 -2.21 L 446.47 -2.21 L 446.47 0.25 L 443.81 0.25 Q 442.78 0.25 441.85 -0.03 Q 440.93 -0.3 440.23 -0.72 Q 439.52 -1.14 438.88 -1.84 Q 438.24 -2.53 437.8 -3.16 Q 437.36 -3.8 436.95 -4.72 Q 436.54 -5.64 436.3 -6.3 Q 436.06 -6.96 435.81 -7.93 Q 435.55 -8.89 435.44 -9.39 Q 435.32 -9.88 435.16 -10.69 L 435.16 -10.69 Q 432.33 -10.69 430.31 -10.78 L 430.31 -10.78 L 430.31 -4.55 Q 430.31 -3.29 430.58 -2.37 L 430.58 -2.37 Q 431.16 -2.21 432.39 -2.21 L 432.39 -2.21 L 433.97 -2.21 L 433.97 0.25 Q 432 0 429.01 0 L 429.01 0 Q 425.11 0 422.84 0.25 L 422.84 0.25 L 422.84 -2.21 L 424.41 -2.21 Q 425.71 -2.21 426.22 -2.37 L 426.22 -2.37 Q 426.5 -3.06 426.5 -4.5 L 426.5 -4.5 L 426.48 -21.01 Q 426.48 -22.34 426.2 -22.92 L 426.2 -22.92 Q 425.72 -23.06 424.58 -23.06 L 424.58 -23.06 Z M 430.31 -23.06 L 430.31 -12.81 Q 432.11 -12.78 433.48 -12.78 L 433.48 -12.78 Q 439.66 -12.78 439.66 -17.98 L 439.66 -17.98 Q 439.66 -20.83 438.15 -21.95 Q 436.64 -23.06 433.04 -23.06 L 433.04 -23.06 L 430.31 -23.06 Z M 448.49 -12.55 L 448.49 -12.55 Q 448.49 -18.76 451.63 -22.19 Q 454.76 -25.63 460.25 -25.63 L 460.25 -25.63 Q 465.68 -25.63 468.82 -22.19 Q 471.96 -18.76 471.96 -12.55 L 471.96 -12.55 Q 471.96 -6.4 468.81 -2.87 Q 465.66 0.65 460.25 0.65 L 460.25 0.65 Q 454.8 0.65 451.64 -2.87 Q 448.49 -6.38 448.49 -12.55 Z M 452.72 -12.5 L 452.72 -12.5 Q 452.72 -7.12 454.61 -4.32 Q 456.5 -1.53 460.25 -1.53 L 460.25 -1.53 Q 463.89 -1.53 465.81 -4.27 Q 467.74 -7.01 467.74 -12.55 L 467.74 -12.55 Q 467.74 -17.96 465.81 -20.73 Q 463.89 -23.5 460.25 -23.5 L 460.25 -23.5 Q 456.63 -23.5 454.68 -20.73 Q 452.72 -17.96 452.72 -12.5 Z M 476.14 -23.06 L 474.56 -23.06 L 474.56 -25.01 Q 476.61 -25.26 480.09 -25.26 L 480.09 -25.26 Q 484.35 -25.26 485.77 -25 L 485.77 -25 L 485.77 -23.06 L 484.14 -23.06 Q 482.87 -23.06 482.33 -22.87 L 482.33 -22.87 Q 482.08 -22.08 482.08 -20.76 L 482.08 -20.76 L 482.08 -8.81 Q 482.08 -5.22 483.79 -3.36 Q 485.51 -1.49 488.5 -1.49 L 488.5 -1.49 Q 491.84 -1.49 493.43 -3.6 Q 495.02 -5.71 495.02 -10.14 L 495.02 -10.14 L 495.02 -20.76 Q 495.02 -22.18 494.74 -22.87 L 494.74 -22.87 Q 494.23 -23.06 492.93 -23.06 L 492.93 -23.06 L 491.34 -23.06 L 491.34 -25.01 Q 493.31 -25.26 496.51 -25.26 L 496.51 -25.26 Q 500.36 -25.26 501.7 -25 L 501.7 -25 L 501.7 -23.06 L 500.08 -23.06 Q 498.76 -23.06 498.27 -22.87 L 498.27 -22.87 Q 498.01 -22.13 498.01 -20.76 L 498.01 -20.76 L 498.01 -9.07 Q 498.01 -5.94 496.71 -3.73 Q 495.4 -1.51 493.17 -0.43 Q 490.94 0.65 487.97 0.65 L 487.97 0.65 Q 478.23 0.65 478.23 -10.3 L 478.23 -10.3 L 478.23 -20.76 Q 478.23 -22.18 477.95 -22.87 L 477.95 -22.87 Q 477.44 -23.06 476.14 -23.06 L 476.14 -23.06 Z M 505.53 -23.06 L 503.6 -23.06 L 503.6 -25 Q 507.01 -25.45 513.6 -25.45 L 513.6 -25.45 Q 516.38 -25.45 518.31 -25.09 Q 520.24 -24.73 521.67 -23.87 Q 523.09 -23.01 523.78 -21.51 Q 524.46 -20 524.46 -17.79 L 524.46 -17.79 Q 524.46 -10.25 514.32 -10.25 L 514.32 -10.25 Q 512.84 -10.25 511.44 -10.34 L 511.44 -10.34 L 511.44 -4.55 Q 511.44 -3.29 511.7 -2.37 L 511.7 -2.37 Q 512.28 -2.21 513.51 -2.21 L 513.51 -2.21 L 515.09 -2.21 L 515.09 0.25 Q 513.12 0 510.13 0 L 510.13 0 Q 506.23 0 503.96 0.25 L 503.96 0.25 L 503.96 -2.21 L 505.53 -2.21 Q 506.83 -2.21 507.34 -2.37 L 507.34 -2.37 Q 507.62 -3.06 507.62 -4.5 L 507.62 -4.5 L 507.6 -20.85 Q 507.6 -22.27 507.32 -22.94 L 507.32 -22.94 Q 506.81 -23.06 505.53 -23.06 L 505.53 -23.06 Z M 511.44 -23.06 L 511.44 -12.46 Q 512.88 -12.43 514.05 -12.43 L 514.05 -12.43 Q 517.59 -12.43 519.06 -13.81 Q 520.52 -15.19 520.52 -17.77 L 520.52 -17.77 Q 520.52 -20.67 519.08 -21.87 Q 517.64 -23.06 514.44 -23.06 L 514.44 -23.06 L 511.44 -23.06 Z M 538.17 -23.06 L 536.59 -23.06 L 536.59 -25 Q 538.79 -25.26 542.13 -25.26 L 542.13 -25.26 Q 546.38 -25.26 547.8 -25 L 547.8 -25 L 547.8 -23.06 L 546.17 -23.06 Q 544.9 -23.06 544.36 -22.87 L 544.36 -22.87 Q 544.11 -22.03 544.11 -20.76 L 544.11 -20.76 L 544.11 -2.21 L 550.81 -2.21 Q 551.46 -2.21 551.79 -2.22 Q 552.13 -2.23 552.65 -2.3 Q 553.17 -2.37 553.44 -2.5 Q 553.71 -2.64 554.08 -2.88 Q 554.45 -3.13 554.69 -3.51 Q 554.92 -3.88 555.16 -4.45 Q 555.4 -5.01 555.59 -5.75 L 555.59 -5.75 L 557.1 -5.54 L 556.45 0 Q 552.85 0.25 550.53 0.25 L 550.53 0.25 Q 548.6 0.25 545.79 0.12 Q 542.99 0 542.18 0 L 542.18 0 Q 538.82 0 536.61 0.25 L 536.61 0.25 L 536.61 -2.21 L 538.17 -2.21 Q 539.47 -2.21 539.98 -2.37 L 539.98 -2.37 Q 540.26 -3.11 540.26 -4.5 L 540.26 -4.5 L 540.26 -20.76 Q 540.26 -22.08 539.98 -22.87 L 539.98 -22.87 Q 539.47 -23.06 538.17 -23.06 L 538.17 -23.06 Z M 561.57 -23.06 L 559.99 -23.06 L 559.99 -25 Q 562.18 -25.26 565.52 -25.26 L 565.52 -25.26 Q 569.78 -25.26 571.2 -25 L 571.2 -25 L 571.2 -23.06 L 569.57 -23.06 Q 568.3 -23.06 567.76 -22.87 L 567.76 -22.87 Q 567.51 -22.03 567.51 -20.76 L 567.51 -20.76 L 567.51 -2.21 L 574.21 -2.21 Q 574.86 -2.21 575.19 -2.22 Q 575.53 -2.23 576.04 -2.3 Q 576.56 -2.37 576.83 -2.5 Q 577.11 -2.64 577.48 -2.88 Q 577.85 -3.13 578.08 -3.51 Q 578.32 -3.88 578.56 -4.45 Q 578.79 -5.01 578.99 -5.75 L 578.99 -5.75 L 580.5 -5.54 L 579.85 0 Q 576.25 0.25 573.93 0.25 L 573.93 0.25 Q 571.99 0.25 569.19 0.12 Q 566.38 0 565.58 0 L 565.58 0 Q 562.22 0 560 0.25 L 560 0.25 L 560 -2.21 L 561.57 -2.21 Q 562.87 -2.21 563.38 -2.37 L 563.38 -2.37 Q 563.66 -3.11 563.66 -4.5 L 563.66 -4.5 L 563.66 -20.76 Q 563.66 -22.08 563.38 -22.87 L 563.38 -22.87 Q 562.87 -23.06 561.57 -23.06 L 561.57 -23.06 Z M 584.07 -12.04 L 584.07 -12.04 Q 584.07 -18.54 587.37 -22.09 Q 590.68 -25.63 596.76 -25.63 L 596.76 -25.63 Q 599.19 -25.63 601.32 -25.07 Q 603.46 -24.5 604.56 -23.82 L 604.56 -23.82 L 604.14 -18.91 L 601.98 -18.91 Q 601.51 -20.2 601.08 -20.99 Q 600.64 -21.78 600.04 -22.39 Q 599.43 -22.99 598.62 -23.25 Q 597.81 -23.5 596.67 -23.5 L 596.67 -23.5 Q 594.53 -23.5 592.89 -22.68 Q 591.26 -21.87 590.27 -20.4 Q 589.29 -18.93 588.8 -17.02 Q 588.3 -15.12 588.3 -12.8 L 588.3 -12.8 Q 588.3 -7.26 590.5 -4.49 Q 592.7 -1.72 596.62 -1.72 L 596.62 -1.72 Q 600.03 -1.72 604.71 -3.88 L 604.71 -3.88 L 604.97 -1.44 Q 601.42 0.65 596.32 0.65 L 596.32 0.65 Q 593.63 0.65 591.42 -0.14 Q 589.2 -0.93 587.55 -2.47 Q 585.9 -4.01 584.98 -6.45 Q 584.07 -8.89 584.07 -12.04 Z" stroke-linecap="round" />
</g>
<g transform="matrix(0 1.070946799547991 -1.0709467995479913 0 512 464.0083161404345)" style="" id="logo-logo"  >
	<g transform="matrix(0.437 0 0 -0.437 -55.58913500000004 0)" id="logo-logo"  >
<path style="stroke: none; stroke-width: 1; stroke-dasharray: none; stroke-linecap: butt; stroke-dashoffset: 0; stroke-linejoin: miter; stroke-miterlimit: 4; fill: rgb(115,115,115); fill-rule: evenodd; opacity: 1;"  paint-order="stroke"  transform=" translate(-1497.925, -4155.504999999999)" d="m 1273.39 4155.5 l 140.45 188.9 c 27.82 37.42 55.64 74.85 83.47 112.27 c 37.53 -50.48 75.07 -100.9 112.57 -151.35 c -37.12 -49.94 -74.25 -99.87 -111.39 -149.82 l 223.97 -301.16 h -51.53 l -223.97 301.16 l 111.37 149.79 l -17.63 23.71 l -128.99 -173.5 l 224.69 -301.16 h -51.98 l -224.24 301.16 l 140.45 188.9 l 14.3 19.25 l -17.62 23.71 l -25.17 -33.84 l -147.22 -198.02 l 223.74 -301.16 h -51.35 l -223.92 301.16" stroke-linecap="round" />
</g>
	<g transform="matrix(0.437 0 0 -0.437 80.187865 0)" id="logo-logo"  >
<path style="stroke: none; stroke-width: 1; stroke-dasharray: none; stroke-linecap: butt; stroke-dashoffset: 0; stroke-linejoin: miter; stroke-miterlimit: 4; fill: rgb(3,45,135); fill-rule: evenodd; opacity: 1;"  paint-order="stroke"  transform=" translate(-1808.3650000000002, -4155.504999999999)" d="m 1836.16 4344.4 l -57.7 77.62 v 0 l -25.76 34.65 l -25.77 -34.65 v 0 l -14.34 -19.29 l -3.29 -4.43 l -0.02 0.04 l -25.77 -34.65 l 0.02 -0.03 l -17.64 -23.7 l -0.01 0.01 l -25.76 -34.65 l 25.79 -34.69 v 0 l 85.6 -115.13 l -111.39 -149.82 l 25.76 -34.65 l 137.16 184.47 l -111.37 149.79 l 17.63 23.71 l 128.99 -173.5 l -154.78 -208.18 l 25.77 -34.66 l 180.54 242.84 l -140.44 188.9 l -14.31 19.25 l 17.63 23.71 l 25.16 -33.84 l 147.22 -198.02 l -147.22 -198.02 l -50.93 -68.49 l 25.77 -34.65 l 83.46 112.26 l 140.45 188.9 l -140.45 188.9" stroke-linecap="round" />
</g>
</g>
</svg>